<svg xmlns="http://www.w3.org/2000/svg" width="760" height="706" viewBox="0 0 760 706" font-family="Georgia, serif">
<rect width="100%" height="100%" fill="#f7f2e7"/>
<text x="16" y="26" font-size="16" fill="#2b2118">Feh Lu We — art-refresh target palette (albedo targets, verify on screen)</text>
<text x="16" y="70" font-size="14" fill="#2b2118">Plaster</text>
<rect x="150" y="44" width="96" height="40" rx="4" fill="#E6DAC2" stroke="#2b2118" stroke-opacity=".25"/><text x="152" y="97" font-size="10" fill="#2b2118">lit</text><text x="152" y="109" font-size="10" fill="#6a5a4a">#E6DAC2</text>
<rect x="252" y="44" width="96" height="40" rx="4" fill="#D3C4A6" stroke="#2b2118" stroke-opacity=".25"/><text x="254" y="97" font-size="10" fill="#2b2118">mid</text><text x="254" y="109" font-size="10" fill="#6a5a4a">#D3C4A6</text>
<rect x="354" y="44" width="96" height="40" rx="4" fill="#ADA391" stroke="#2b2118" stroke-opacity=".25"/><text x="356" y="97" font-size="10" fill="#2b2118">shade</text><text x="356" y="109" font-size="10" fill="#6a5a4a">#ADA391</text>
<rect x="456" y="44" width="96" height="40" rx="4" fill="#C7C9AC" stroke="#2b2118" stroke-opacity=".25"/><text x="458" y="97" font-size="10" fill="#2b2118">sage tint</text><text x="458" y="109" font-size="10" fill="#6a5a4a">#C7C9AC</text>
<rect x="558" y="44" width="96" height="40" rx="4" fill="#DCC38F" stroke="#2b2118" stroke-opacity=".25"/><text x="560" y="97" font-size="10" fill="#2b2118">ochre tint</text><text x="560" y="109" font-size="10" fill="#6a5a4a">#DCC38F</text>
<rect x="660" y="44" width="96" height="40" rx="4" fill="#B9C0BE" stroke="#2b2118" stroke-opacity=".25"/><text x="662" y="97" font-size="10" fill="#2b2118">dove tint</text><text x="662" y="109" font-size="10" fill="#6a5a4a">#B9C0BE</text>
<text x="16" y="144" font-size="14" fill="#2b2118">Timber</text>
<rect x="150" y="118" width="96" height="40" rx="4" fill="#A87A4E" stroke="#2b2118" stroke-opacity=".25"/><text x="152" y="171" font-size="10" fill="#2b2118">oak light</text><text x="152" y="183" font-size="10" fill="#6a5a4a">#A87A4E</text>
<rect x="252" y="118" width="96" height="40" rx="4" fill="#7E5636" stroke="#2b2118" stroke-opacity=".25"/><text x="254" y="171" font-size="10" fill="#2b2118">oak</text><text x="254" y="183" font-size="10" fill="#6a5a4a">#7E5636</text>
<rect x="354" y="118" width="96" height="40" rx="4" fill="#4E3320" stroke="#2b2118" stroke-opacity=".25"/><text x="356" y="171" font-size="10" fill="#2b2118">walnut</text><text x="356" y="183" font-size="10" fill="#6a5a4a">#4E3320</text>
<rect x="456" y="118" width="96" height="40" rx="4" fill="#3A2A1E" stroke="#2b2118" stroke-opacity=".25"/><text x="458" y="171" font-size="10" fill="#2b2118">soot beam</text><text x="458" y="183" font-size="10" fill="#6a5a4a">#3A2A1E</text>
<rect x="558" y="118" width="96" height="40" rx="4" fill="#8C7C68" stroke="#2b2118" stroke-opacity=".25"/><text x="560" y="171" font-size="10" fill="#2b2118">weathered</text><text x="560" y="183" font-size="10" fill="#6a5a4a">#8C7C68</text>
<rect x="660" y="118" width="96" height="40" rx="4" fill="#4F6650" stroke="#2b2118" stroke-opacity=".25"/><text x="662" y="171" font-size="10" fill="#2b2118">painted green</text><text x="662" y="183" font-size="10" fill="#6a5a4a">#4F6650</text>
<text x="16" y="218" font-size="14" fill="#2b2118">Stone</text>
<rect x="150" y="192" width="96" height="40" rx="4" fill="#CDBE9E" stroke="#2b2118" stroke-opacity=".25"/><text x="152" y="245" font-size="10" fill="#2b2118">sandstone lit</text><text x="152" y="257" font-size="10" fill="#6a5a4a">#CDBE9E</text>
<rect x="252" y="192" width="96" height="40" rx="4" fill="#A89A7E" stroke="#2b2118" stroke-opacity=".25"/><text x="254" y="245" font-size="10" fill="#2b2118">sandstone</text><text x="254" y="257" font-size="10" fill="#6a5a4a">#A89A7E</text>
<rect x="354" y="192" width="96" height="40" rx="4" fill="#7C766B" stroke="#2b2118" stroke-opacity=".25"/><text x="356" y="245" font-size="10" fill="#2b2118">stone shade</text><text x="356" y="257" font-size="10" fill="#6a5a4a">#7C766B</text>
<rect x="456" y="192" width="96" height="40" rx="4" fill="#7D8160" stroke="#2b2118" stroke-opacity=".25"/><text x="458" y="245" font-size="10" fill="#2b2118">moss stone</text><text x="458" y="257" font-size="10" fill="#6a5a4a">#7D8160</text>
<rect x="558" y="192" width="96" height="40" rx="4" fill="#5E6670" stroke="#2b2118" stroke-opacity=".25"/><text x="560" y="245" font-size="10" fill="#2b2118">slate</text><text x="560" y="257" font-size="10" fill="#6a5a4a">#5E6670</text>
<rect x="660" y="192" width="96" height="40" rx="4" fill="#434951" stroke="#2b2118" stroke-opacity=".25"/><text x="662" y="245" font-size="10" fill="#2b2118">slate dark</text><text x="662" y="257" font-size="10" fill="#6a5a4a">#434951</text>
<text x="16" y="292" font-size="14" fill="#2b2118">Foliage</text>
<rect x="150" y="266" width="96" height="40" rx="4" fill="#8EA058" stroke="#2b2118" stroke-opacity=".25"/><text x="152" y="319" font-size="10" fill="#2b2118">sunlit leaf</text><text x="152" y="331" font-size="10" fill="#6a5a4a">#8EA058</text>
<rect x="252" y="266" width="96" height="40" rx="4" fill="#61763F" stroke="#2b2118" stroke-opacity=".25"/><text x="254" y="319" font-size="10" fill="#2b2118">canopy</text><text x="254" y="331" font-size="10" fill="#6a5a4a">#61763F</text>
<rect x="354" y="266" width="96" height="40" rx="4" fill="#3D5031" stroke="#2b2118" stroke-opacity=".25"/><text x="356" y="319" font-size="10" fill="#2b2118">canopy shade</text><text x="356" y="331" font-size="10" fill="#6a5a4a">#3D5031</text>
<rect x="456" y="266" width="96" height="40" rx="4" fill="#36503F" stroke="#2b2118" stroke-opacity=".25"/><text x="458" y="319" font-size="10" fill="#2b2118">conifer</text><text x="458" y="331" font-size="10" fill="#6a5a4a">#36503F</text>
<rect x="558" y="266" width="96" height="40" rx="4" fill="#6C8744" stroke="#2b2118" stroke-opacity=".25"/><text x="560" y="319" font-size="10" fill="#2b2118">fern</text><text x="560" y="331" font-size="10" fill="#6a5a4a">#6C8744</text>
<rect x="660" y="266" width="96" height="40" rx="4" fill="#9AAD69" stroke="#2b2118" stroke-opacity=".25"/><text x="662" y="319" font-size="10" fill="#2b2118">meadow</text><text x="662" y="331" font-size="10" fill="#6a5a4a">#9AAD69</text>
<text x="16" y="366" font-size="14" fill="#2b2118">Ground</text>
<rect x="150" y="340" width="96" height="40" rx="4" fill="#5D6A3D" stroke="#2b2118" stroke-opacity=".25"/><text x="152" y="393" font-size="10" fill="#2b2118">forest floor</text><text x="152" y="405" font-size="10" fill="#6a5a4a">#5D6A3D</text>
<rect x="252" y="340" width="96" height="40" rx="4" fill="#7A6446" stroke="#2b2118" stroke-opacity=".25"/><text x="254" y="393" font-size="10" fill="#2b2118">leaf litter</text><text x="254" y="405" font-size="10" fill="#6a5a4a">#7A6446</text>
<rect x="354" y="340" width="96" height="40" rx="4" fill="#B0976F" stroke="#2b2118" stroke-opacity=".25"/><text x="356" y="393" font-size="10" fill="#2b2118">path earth</text><text x="356" y="405" font-size="10" fill="#6a5a4a">#B0976F</text>
<rect x="456" y="340" width="96" height="40" rx="4" fill="#BDB19A" stroke="#2b2118" stroke-opacity=".25"/><text x="458" y="393" font-size="10" fill="#2b2118">gravel</text><text x="458" y="405" font-size="10" fill="#6a5a4a">#BDB19A</text>
<rect x="558" y="340" width="96" height="40" rx="4" fill="#B5733A" stroke="#2b2118" stroke-opacity=".25"/><text x="560" y="393" font-size="10" fill="#2b2118">autumn accent</text><text x="560" y="405" font-size="10" fill="#6a5a4a">#B5733A</text>
<rect x="660" y="340" width="96" height="40" rx="4" fill="#C6B65A" stroke="#2b2118" stroke-opacity=".25"/><text x="662" y="393" font-size="10" fill="#2b2118">birch yellow</text><text x="662" y="405" font-size="10" fill="#6a5a4a">#C6B65A</text>
<text x="16" y="440" font-size="14" fill="#2b2118">Textiles</text>
<rect x="150" y="414" width="96" height="40" rx="4" fill="#7A2E2A" stroke="#2b2118" stroke-opacity=".25"/><text x="152" y="467" font-size="10" fill="#2b2118">oxblood</text><text x="152" y="479" font-size="10" fill="#6a5a4a">#7A2E2A</text>
<rect x="252" y="414" width="96" height="40" rx="4" fill="#3F5B45" stroke="#2b2118" stroke-opacity=".25"/><text x="254" y="467" font-size="10" fill="#2b2118">bottle green</text><text x="254" y="479" font-size="10" fill="#6a5a4a">#3F5B45</text>
<rect x="354" y="414" width="96" height="40" rx="4" fill="#2F3E58" stroke="#2b2118" stroke-opacity=".25"/><text x="356" y="467" font-size="10" fill="#2b2118">ink blue</text><text x="356" y="479" font-size="10" fill="#6a5a4a">#2F3E58</text>
<rect x="456" y="414" width="96" height="40" rx="4" fill="#C08A3E" stroke="#2b2118" stroke-opacity=".25"/><text x="458" y="467" font-size="10" fill="#2b2118">ochre</text><text x="458" y="479" font-size="10" fill="#6a5a4a">#C08A3E</text>
<rect x="558" y="414" width="96" height="40" rx="4" fill="#E4D9C2" stroke="#2b2118" stroke-opacity=".25"/><text x="560" y="467" font-size="10" fill="#2b2118">linen</text><text x="560" y="479" font-size="10" fill="#6a5a4a">#E4D9C2</text>
<rect x="660" y="414" width="96" height="40" rx="4" fill="#B57B6C" stroke="#2b2118" stroke-opacity=".25"/><text x="662" y="467" font-size="10" fill="#2b2118">faded rose</text><text x="662" y="479" font-size="10" fill="#6a5a4a">#B57B6C</text>
<text x="16" y="514" font-size="14" fill="#2b2118">Metal + ceramic</text>
<rect x="150" y="488" width="96" height="40" rx="4" fill="#C29A48" stroke="#2b2118" stroke-opacity=".25"/><text x="152" y="541" font-size="10" fill="#2b2118">brass</text><text x="152" y="553" font-size="10" fill="#6a5a4a">#C29A48</text>
<rect x="252" y="488" width="96" height="40" rx="4" fill="#E6C77B" stroke="#2b2118" stroke-opacity=".25"/><text x="254" y="541" font-size="10" fill="#2b2118">brass high</text><text x="254" y="553" font-size="10" fill="#6a5a4a">#E6C77B</text>
<rect x="354" y="488" width="96" height="40" rx="4" fill="#7A5C26" stroke="#2b2118" stroke-opacity=".25"/><text x="356" y="541" font-size="10" fill="#2b2118">brass low</text><text x="356" y="553" font-size="10" fill="#6a5a4a">#7A5C26</text>
<rect x="456" y="488" width="96" height="40" rx="4" fill="#2F2C2A" stroke="#2b2118" stroke-opacity=".25"/><text x="458" y="541" font-size="10" fill="#2b2118">iron</text><text x="458" y="553" font-size="10" fill="#6a5a4a">#2F2C2A</text>
<rect x="558" y="488" width="96" height="40" rx="4" fill="#B0643A" stroke="#2b2118" stroke-opacity=".25"/><text x="560" y="541" font-size="10" fill="#2b2118">copper</text><text x="560" y="553" font-size="10" fill="#6a5a4a">#B0643A</text>
<rect x="660" y="488" width="96" height="40" rx="4" fill="#ECE6D8" stroke="#2b2118" stroke-opacity=".25"/><text x="662" y="541" font-size="10" fill="#2b2118">glaze white</text><text x="662" y="553" font-size="10" fill="#6a5a4a">#ECE6D8</text>
<text x="16" y="588" font-size="14" fill="#2b2118">Warm light</text>
<rect x="150" y="562" width="96" height="40" rx="4" fill="#FFE7A8" stroke="#2b2118" stroke-opacity=".25"/><text x="152" y="615" font-size="10" fill="#2b2118">flame core</text><text x="152" y="627" font-size="10" fill="#6a5a4a">#FFE7A8</text>
<rect x="252" y="562" width="96" height="40" rx="4" fill="#FFC77A" stroke="#2b2118" stroke-opacity=".25"/><text x="254" y="615" font-size="10" fill="#2b2118">lamp</text><text x="254" y="627" font-size="10" fill="#6a5a4a">#FFC77A</text>
<rect x="354" y="562" width="96" height="40" rx="4" fill="#F4C06A" stroke="#2b2118" stroke-opacity=".25"/><text x="356" y="615" font-size="10" fill="#2b2118">window glow</text><text x="356" y="627" font-size="10" fill="#6a5a4a">#F4C06A</text>
<rect x="456" y="562" width="96" height="40" rx="4" fill="#E0662A" stroke="#2b2118" stroke-opacity=".25"/><text x="458" y="615" font-size="10" fill="#2b2118">ember</text><text x="458" y="627" font-size="10" fill="#6a5a4a">#E0662A</text>
<rect x="558" y="562" width="96" height="40" rx="4" fill="#FFD89A" stroke="#2b2118" stroke-opacity=".25"/><text x="560" y="615" font-size="10" fill="#2b2118">candle</text><text x="560" y="627" font-size="10" fill="#6a5a4a">#FFD89A</text>
<rect x="660" y="562" width="96" height="40" rx="4" fill="#FFB866" stroke="#2b2118" stroke-opacity=".25"/><text x="662" y="615" font-size="10" fill="#2b2118">patch tint</text><text x="662" y="627" font-size="10" fill="#6a5a4a">#FFB866</text>
<text x="16" y="662" font-size="14" fill="#2b2118">Cool shade + air</text>
<rect x="150" y="636" width="96" height="40" rx="4" fill="#7FA3C8" stroke="#2b2118" stroke-opacity=".25"/><text x="152" y="689" font-size="10" fill="#2b2118">sky zenith</text><text x="152" y="701" font-size="10" fill="#6a5a4a">#7FA3C8</text>
<rect x="252" y="636" width="96" height="40" rx="4" fill="#D8D1BC" stroke="#2b2118" stroke-opacity=".25"/><text x="254" y="689" font-size="10" fill="#2b2118">day haze</text><text x="254" y="701" font-size="10" fill="#6a5a4a">#D8D1BC</text>
<rect x="354" y="636" width="96" height="40" rx="4" fill="#A3B3A6" stroke="#2b2118" stroke-opacity=".25"/><text x="356" y="689" font-size="10" fill="#2b2118">wood haze</text><text x="356" y="701" font-size="10" fill="#6a5a4a">#A3B3A6</text>
<rect x="456" y="636" width="96" height="40" rx="4" fill="#2E3A3A" stroke="#2b2118" stroke-opacity=".25"/><text x="458" y="689" font-size="10" fill="#2b2118">deep shade</text><text x="458" y="701" font-size="10" fill="#6a5a4a">#2E3A3A</text>
<rect x="558" y="636" width="96" height="40" rx="4" fill="#3D4E66" stroke="#2b2118" stroke-opacity=".25"/><text x="560" y="689" font-size="10" fill="#2b2118">dusk blue</text><text x="560" y="701" font-size="10" fill="#6a5a4a">#3D4E66</text>
<rect x="660" y="636" width="96" height="40" rx="4" fill="#3F6B6A" stroke="#2b2118" stroke-opacity=".25"/><text x="662" y="689" font-size="10" fill="#2b2118">pond</text><text x="662" y="701" font-size="10" fill="#6a5a4a">#3F6B6A</text>
</svg>
