<svg xmlns="http://www.w3.org/2000/svg" width="2400" height="1600" viewBox="0 0 2400 1600">
<defs>
 <linearGradient id="paper" x1="0" y1="0" x2="1" y2="1"><stop stop-color="#f4e9d0"/><stop offset="0.47" stop-color="#ecdcbb"/><stop offset="1" stop-color="#d9c49b"/></linearGradient>
 <linearGradient id="metal" x1="0" y1="0" x2="1" y2="1"><stop stop-color="#cfb67b"/><stop offset=".4" stop-color="#947442"/><stop offset=".72" stop-color="#bc9956"/><stop offset="1" stop-color="#5e4c35"/></linearGradient>
 <linearGradient id="wood" x1="0" y1="0" x2="1" y2="1"><stop stop-color="#9c7555"/><stop offset=".55" stop-color="#674a37"/><stop offset="1" stop-color="#3e3028"/></linearGradient>
 <linearGradient id="lamp" x1="0" y1="0" x2="1" y2="1"><stop stop-color="#7b8880"/><stop offset=".4" stop-color="#53665f"/><stop offset="1" stop-color="#263b3c"/></linearGradient>
 <filter id="shadow"><feGaussianBlur stdDeviation="18"/></filter>
 <pattern id="grain" width="114" height="111" patternUnits="userSpaceOnUse"><path d="M17 41l23 -2 M72 17l20 6 M53 75l15 -5 M91 101l8 -3" stroke="#a78255" stroke-width="1.3" opacity=".13"/><circle cx="25" cy="85" r="2.5" fill="#ae7c53" opacity=".2"/></pattern>
 <marker id="arrow" viewBox="0 0 10 10" refX="8" refY="5" markerWidth="7" markerHeight="7" orient="auto"><path d="M0 0 L10 5 L0 10z" fill="#5b655b"/></marker>
</defs>
<rect width="2400" height="1600" fill="#9f8b6c"/>
<path d="M66 72 Q93 64 124 73 L2194 78 Q2235 84 2316 70 L2320 1520 Q2260 1535 2201 1526 L96 1536 Q74 1529 67 1507 Z" fill="#6f5744" opacity=".34" transform="translate(8,13)" filter="url(#shadow)"/>
<path d="M67 74 Q145 59 210 75 L2203 79 Q2254 69 2327 75 L2320 1521 Q2242 1543 2156 1526 L136 1535 Q83 1527 66 1524 Z" fill="url(#paper)" stroke="#bba67e" stroke-width="4"/>
<rect x="72" y="75" width="2246" height="1450" fill="url(#grain)" opacity=".9"/>
<path d="M116 118 Q105 820 127 1494 M2291 112 Q2300 792 2279 1497 M133 151 Q1180 136 2279 152 M117 1483 Q1200 1496 2261 1475" fill="none" stroke="#967653" stroke-width="2" opacity=".5"/>
<rect x="142" y="150" width="2118" height="1205" rx="13" fill="#faf1dc" opacity=".36"/>
<!-- header -->
<path d="M189 298 L2223 298" stroke="#8d714e" stroke-width="4" opacity=".65"/>
<path d="M189 315 L2223 315" stroke="#8d714e" stroke-width="1" opacity=".35"/>
<text x="197" y="191" font-size="28" fill="#687060" font-family="Lato" font-weight="bold" letter-spacing="7">WERKPLAATS · LICHTINSTALLATIE</text><text x="196" y="270" font-size="74" fill="#3b342e" font-family="Liberation Serif" font-weight="normal" >De lantaarns en de voedingshendel</text><text x="1500" y="185" font-size="29" fill="#687060" font-family="Lato" font-weight="bold" letter-spacing="5">SCHUURINSTRUCTIE</text><ellipse cx="1229" cy="1193" rx="36.2" ry="18.1" fill="#a88a59" opacity="0.019"/><ellipse cx="753" cy="702" rx="34.8" ry="17.4" fill="#a88a59" opacity="0.015"/><ellipse cx="1514" cy="914" rx="11.9" ry="5.9" fill="#a88a59" opacity="0.004"/><ellipse cx="946" cy="1204" rx="16.8" ry="8.4" fill="#a88a59" opacity="0.012"/><ellipse cx="810" cy="1167" rx="12.8" ry="6.4" fill="#a88a59" opacity="0.013"/><ellipse cx="446" cy="747" rx="13.3" ry="6.6" fill="#a88a59" opacity="0.015"/><ellipse cx="1304" cy="775" rx="19.6" ry="9.8" fill="#a88a59" opacity="0.006"/><ellipse cx="1625" cy="486" rx="18.8" ry="9.4" fill="#a88a59" opacity="0.005"/><ellipse cx="2084" cy="1315" rx="30.4" ry="15.2" fill="#a88a59" opacity="0.014"/><ellipse cx="1557" cy="1181" rx="36.5" ry="18.2" fill="#a88a59" opacity="0.019"/><ellipse cx="196" cy="1231" rx="21.0" ry="10.5" fill="#a88a59" opacity="0.005"/><ellipse cx="1700" cy="1071" rx="9.8" ry="4.9" fill="#a88a59" opacity="0.012"/><ellipse cx="1347" cy="355" rx="38.4" ry="19.2" fill="#a88a59" opacity="0.008"/><ellipse cx="1300" cy="782" rx="41.5" ry="20.8" fill="#a88a59" opacity="0.012"/><ellipse cx="896" cy="464" rx="17.4" ry="8.7" fill="#a88a59" opacity="0.017"/><ellipse cx="554" cy="1436" rx="27.4" ry="13.7" fill="#a88a59" opacity="0.006"/><ellipse cx="1508" cy="974" rx="40.1" ry="20.0" fill="#a88a59" opacity="0.009"/><ellipse cx="840" cy="537" rx="39.8" ry="19.9" fill="#a88a59" opacity="0.013"/><ellipse cx="718" cy="1031" rx="8.3" ry="4.2" fill="#a88a59" opacity="0.016"/><ellipse cx="872" cy="384" rx="24.4" ry="12.2" fill="#a88a59" opacity="0.008"/><ellipse cx="1456" cy="455" rx="33.5" ry="16.8" fill="#a88a59" opacity="0.009"/><ellipse cx="313" cy="1338" rx="8.7" ry="4.4" fill="#a88a59" opacity="0.013"/><ellipse cx="1564" cy="628" rx="22.1" ry="11.1" fill="#a88a59" opacity="0.016"/><ellipse cx="2125" cy="1146" rx="14.4" ry="7.2" fill="#a88a59" opacity="0.020"/><ellipse cx="2127" cy="653" rx="31.7" ry="15.8" fill="#a88a59" opacity="0.019"/><ellipse cx="262" cy="1444" rx="18.7" ry="9.3" fill="#a88a59" opacity="0.018"/><ellipse cx="806" cy="992" rx="9.7" ry="4.9" fill="#a88a59" opacity="0.019"/><ellipse cx="350" cy="983" rx="37.4" ry="18.7" fill="#a88a59" opacity="0.015"/><ellipse cx="986" cy="1328" rx="10.6" ry="5.3" fill="#a88a59" opacity="0.005"/><ellipse cx="1463" cy="840" rx="15.9" ry="7.9" fill="#a88a59" opacity="0.019"/><ellipse cx="1339" cy="679" rx="36.0" ry="18.0" fill="#a88a59" opacity="0.005"/><ellipse cx="1978" cy="1341" rx="28.5" ry="14.3" fill="#a88a59" opacity="0.017"/><ellipse cx="615" cy="1180" rx="26.0" ry="13.0" fill="#a88a59" opacity="0.011"/><ellipse cx="2141" cy="1285" rx="34.3" ry="17.2" fill="#a88a59" opacity="0.008"/><ellipse cx="811" cy="731" rx="41.9" ry="21.0" fill="#a88a59" opacity="0.014"/><ellipse cx="2129" cy="1408" rx="22.8" ry="11.4" fill="#a88a59" opacity="0.018"/><ellipse cx="833" cy="691" rx="40.5" ry="20.3" fill="#a88a59" opacity="0.013"/><ellipse cx="1415" cy="986" rx="20.9" ry="10.4" fill="#a88a59" opacity="0.020"/><ellipse cx="1705" cy="777" rx="18.6" ry="9.3" fill="#a88a59" opacity="0.010"/><ellipse cx="1371" cy="536" rx="26.2" ry="13.1" fill="#a88a59" opacity="0.012"/><ellipse cx="553" cy="711" rx="23.7" ry="11.9" fill="#a88a59" opacity="0.011"/><ellipse cx="1192" cy="625" rx="26.8" ry="13.4" fill="#a88a59" opacity="0.012"/><ellipse cx="184" cy="947" rx="17.2" ry="8.6" fill="#a88a59" opacity="0.020"/><ellipse cx="1852" cy="1302" rx="19.8" ry="9.9" fill="#a88a59" opacity="0.009"/><ellipse cx="266" cy="892" rx="11.4" ry="5.7" fill="#a88a59" opacity="0.015"/><ellipse cx="191" cy="401" rx="11.9" ry="6.0" fill="#a88a59" opacity="0.015"/><ellipse cx="777" cy="762" rx="42.8" ry="21.4" fill="#a88a59" opacity="0.006"/><ellipse cx="2020" cy="398" rx="23.9" ry="12.0" fill="#a88a59" opacity="0.017"/><ellipse cx="2052" cy="799" rx="38.4" ry="19.2" fill="#a88a59" opacity="0.004"/><ellipse cx="979" cy="596" rx="23.0" ry="11.5" fill="#a88a59" opacity="0.005"/><ellipse cx="1264" cy="467" rx="14.6" ry="7.3" fill="#a88a59" opacity="0.013"/><ellipse cx="711" cy="1075" rx="20.2" ry="10.1" fill="#a88a59" opacity="0.013"/><ellipse cx="1838" cy="1198" rx="22.2" ry="11.1" fill="#a88a59" opacity="0.004"/><ellipse cx="1696" cy="1039" rx="10.8" ry="5.4" fill="#a88a59" opacity="0.016"/><ellipse cx="1786" cy="413" rx="29.9" ry="15.0" fill="#a88a59" opacity="0.018"/><ellipse cx="826" cy="1003" rx="12.1" ry="6.1" fill="#a88a59" opacity="0.006"/><ellipse cx="1874" cy="843" rx="40.3" ry="20.2" fill="#a88a59" opacity="0.017"/><ellipse cx="1066" cy="600" rx="16.9" ry="8.5" fill="#a88a59" opacity="0.005"/><ellipse cx="1021" cy="980" rx="32.0" ry="16.0" fill="#a88a59" opacity="0.012"/><ellipse cx="422" cy="782" rx="25.7" ry="12.8" fill="#a88a59" opacity="0.020"/><ellipse cx="1331" cy="655" rx="35.5" ry="17.7" fill="#a88a59" opacity="0.005"/><ellipse cx="1056" cy="1426" rx="39.4" ry="19.7" fill="#a88a59" opacity="0.016"/><ellipse cx="1397" cy="660" rx="31.2" ry="15.6" fill="#a88a59" opacity="0.006"/><ellipse cx="1361" cy="1440" rx="40.8" ry="20.4" fill="#a88a59" opacity="0.012"/><ellipse cx="1948" cy="921" rx="41.5" ry="20.7" fill="#a88a59" opacity="0.011"/><ellipse cx="1423" cy="828" rx="13.9" ry="7.0" fill="#a88a59" opacity="0.015"/><ellipse cx="1753" cy="827" rx="22.9" ry="11.5" fill="#a88a59" opacity="0.009"/><ellipse cx="1712" cy="1252" rx="34.3" ry="17.1" fill="#a88a59" opacity="0.017"/><ellipse cx="751" cy="841" rx="25.4" ry="12.7" fill="#a88a59" opacity="0.012"/><ellipse cx="922" cy="359" rx="30.2" ry="15.1" fill="#a88a59" opacity="0.009"/><ellipse cx="317" cy="1226" rx="11.0" ry="5.5" fill="#a88a59" opacity="0.012"/><ellipse cx="659" cy="693" rx="10.5" ry="5.2" fill="#a88a59" opacity="0.009"/><ellipse cx="750" cy="1040" rx="39.7" ry="19.9" fill="#a88a59" opacity="0.011"/><ellipse cx="464" cy="651" rx="34.0" ry="17.0" fill="#a88a59" opacity="0.009"/><ellipse cx="1928" cy="1011" rx="40.3" ry="20.1" fill="#a88a59" opacity="0.012"/><ellipse cx="453" cy="1238" rx="11.6" ry="5.8" fill="#a88a59" opacity="0.017"/><ellipse cx="1978" cy="872" rx="16.3" ry="8.1" fill="#a88a59" opacity="0.007"/><ellipse cx="1936" cy="1101" rx="37.4" ry="18.7" fill="#a88a59" opacity="0.011"/><ellipse cx="713" cy="506" rx="18.8" ry="9.4" fill="#a88a59" opacity="0.020"/><ellipse cx="1484" cy="761" rx="38.8" ry="19.4" fill="#a88a59" opacity="0.004"/><line x1="1387" y1="360" x2="1387" y2="1404" stroke="#ab9068" stroke-width="4" opacity=".65"/><text x="213" y="390" font-size="37" fill="#4e503f" font-family="Lato" font-weight="bold" letter-spacing="6">DE VOEDINGSVOET</text><text x="215" y="440" font-size="34" fill="#6f6c5d" font-family="Liberation Serif" font-weight="italic" >Hendel en lantaarn — onderdelenstudie</text><path d="M282 1245 Q670 1220 1226 1234" fill="none" stroke="#816d52" stroke-width="3" opacity=".13"/><path d="M293 1233 Q670 1208 1238 1233" fill="none" stroke="#816d52" stroke-width="4" opacity=".13"/><path d="M243 1229 Q670 1204 1212 1226" fill="none" stroke="#816d52" stroke-width="4" opacity=".13"/><path d="M308 1247 Q670 1222 1280 1259" fill="none" stroke="#816d52" stroke-width="4" opacity=".13"/><path d="M234 1203 Q670 1178 1274 1202" fill="none" stroke="#816d52" stroke-width="2" opacity=".13"/><path d="M307 1204 Q670 1179 1219 1204" fill="none" stroke="#816d52" stroke-width="1" opacity=".13"/><path d="M294 1219 Q670 1194 1275 1218" fill="none" stroke="#816d52" stroke-width="2" opacity=".13"/><path d="M271 1227 Q670 1202 1206 1229" fill="none" stroke="#816d52" stroke-width="1" opacity=".13"/><path d="M240 1198 Q670 1173 1245 1210" fill="none" stroke="#816d52" stroke-width="4" opacity=".13"/><path d="M297 1204 Q670 1179 1249 1204" fill="none" stroke="#816d52" stroke-width="4" opacity=".13"/><path d="M319 1211 Q670 1186 1212 1206" fill="none" stroke="#816d52" stroke-width="3" opacity=".13"/><path d="M237 1214 Q670 1189 1278 1217" fill="none" stroke="#816d52" stroke-width="1" opacity=".13"/><path d="M222 1220 Q670 1195 1248 1228" fill="none" stroke="#816d52" stroke-width="4" opacity=".13"/><path d="M233 1196 Q670 1171 1237 1184" fill="none" stroke="#816d52" stroke-width="3" opacity=".13"/><path d="M226 1220 Q670 1195 1275 1213" fill="none" stroke="#816d52" stroke-width="3" opacity=".13"/><ellipse cx="490" cy="1134" rx="175" ry="32" fill="#5a4d3e" opacity=".16"/>
<path d="M405 1011 L520 1039 L532 1116 Q480 1152 402 1124 L355 1092 Z" fill="url(#wood)" stroke="#453528" stroke-width="7"/>
<path d="M400 1011 L447 683 L477 686 L484 1048 Z" fill="url(#metal)" stroke="#584935" stroke-width="7"/>
<path d="M427 711 L440 592 Q438 578 418 561 L370 526" fill="none" stroke="#725a3c" stroke-width="28" stroke-linecap="round"/>
<path d="M424 707 L437 599 Q437 585 418 573 L368 538" fill="none" stroke="#ceb27f" stroke-width="7" opacity=".65"/>
<rect x="301" y="485" width="132" height="50" rx="23" fill="url(#wood)" stroke="#4c3828" stroke-width="6" transform="rotate(28 367 510)"/>
<path d="M330 479 Q380 515 401 529" stroke="#d1a37a" stroke-width="4" opacity=".5"/>
<ellipse cx="463" cy="1075" rx="40" ry="16" fill="#362e2b" opacity=".23"/>
<circle cx="408" cy="1095" r="10" fill="url(#metal)"/>
<circle cx="496" cy="1105" r="10" fill="url(#metal)"/>
<ellipse cx="990" cy="1189" rx="307" ry="42" fill="#5a4d3e" opacity=".14"/>
<path d="M716 1117 Q730 1093 776 1086 L1180 1086 Q1204 1087 1224 1123 L1216 1181 Q987 1230 733 1184 Z" fill="url(#wood)" stroke="#4e3e32" stroke-width="8"/>
<path d="M755 1117 Q980 1091 1185 1117" stroke="#caab75" stroke-width="5" opacity=".6" fill="none"/>
<path d="M786 1023 L1163 1023 Q1180 1043 1192 1085 L772 1085 Z" fill="url(#metal)" stroke="#5b4937" stroke-width="8"/>
<path d="M829 727 Q977 665 1116 727 L1141 1002 Q979 1048 817 1001 Z" fill="url(#lamp)" stroke="#344340" stroke-width="10"/>
<path d="M847 746 Q978 710 1101 744" fill="none" stroke="#ccba83" stroke-width="9" opacity=".65"/>
<path d="M849 987 Q978 1011 1113 987" fill="none" stroke="#cfb47b" stroke-width="8" opacity=".7"/>
<ellipse cx="976" cy="726" rx="147" ry="54" fill="url(#metal)" stroke="#65543e" stroke-width="9"/>
<ellipse cx="977" cy="728" rx="110" ry="38" fill="#2d433e" stroke="#cfb47b" stroke-width="8"/>
<path d="M1031 845a73 73 0 1 1 -78 -102a78 78 0 1 0 78 102" fill="#d3b572" opacity=".78"/>
<path d="M844 849 L780 850 L780 910 L839 919" fill="url(#metal)" stroke="#69543b" stroke-width="9"/>
<ellipse cx="780" cy="880" rx="21" ry="28" fill="#d6c297" stroke="#69543b" stroke-width="7"/>
<circle cx="781" cy="881" r="9" fill="#566b67"/>
<circle cx="1155" cy="821" r="60" fill="url(#metal)" stroke="#604b33" stroke-width="9"/>
<circle cx="1155" cy="821" r="36" fill="#394b48" stroke="#d7b67b" stroke-width="8"/>
<path d="M1121 740 A100 100 0 0 1 1233 780" fill="none" stroke="#758271" stroke-width="9" stroke-dasharray="11 9" marker-end="url(#arrow)"/>
<circle cx="820" cy="1154" r="11" fill="#d8bd7c" stroke="#6b593b" stroke-width="4"/>
<circle cx="1165" cy="1154" r="11" fill="#d8bd7c" stroke="#6b593b" stroke-width="4"/>
<path d="M377 590 L290 590 L247 544" fill="none" stroke="#5f6b60" stroke-width="4"/>
<path d="M780 879 L636 879 L598 851" fill="none" stroke="#5f6b60" stroke-width="4"/>
<path d="M1200 825 L1278 761 L1299 761" fill="none" stroke="#5f6b60" stroke-width="4"/>
<text x="214" y="481" font-size="26" fill="#4b564e" font-family="Lato" font-weight="bold" letter-spacing="3">LOSSE HENDEL</text><text x="542" y="814" font-size="25" fill="#4b564e" font-family="Lato" font-weight="bold" letter-spacing="2">VASTE INGANG</text><text x="1103" y="610" font-size="24" fill="#4b564e" font-family="Lato" font-weight="bold" letter-spacing="1">DRAAIBARE</text><text x="1103" y="644" font-size="24" fill="#4b564e" font-family="Lato" font-weight="bold" letter-spacing="1">UITGANG</text><path d="M216 1281 L1329 1281" stroke="#937c59" stroke-width="2" opacity=".5"/>
<rect x="220" y="1313" width="1115" height="107" rx="8" fill="#ddccab" opacity=".44"/>
<text x="257" y="1358" font-size="29" fill="#514a3e" font-family="Liberation Serif" font-weight="normal" >De vaste ingang en de draaibare uitgang zijn aparte onderdelen.</text><text x="257" y="1398" font-size="26" fill="#6a6759" font-family="Liberation Serif" font-weight="italic" >De tekening toont de werking; niet de juiste veldstanden.</text><path d="M1454 361 L2221 361 L2221 1402 L1454 1402 Z" fill="#f7efd9" opacity=".65" stroke="#af9a74" stroke-width="4"/>
<path d="M1492 401 L2185 401" stroke="#b69d70" stroke-width="2" opacity=".7"/>
<text x="1516" y="457" font-size="43" fill="#4c523f" font-family="Liberation Serif" font-weight="bold" >INSTRUCTIEKAART</text><text x="1518" y="501" font-size="28" fill="#7d6b53" font-family="Liberation Serif" font-weight="italic" >Bij de voedingshendel gevonden</text><text x="1516" y="595" font-size="37" fill="#372f29" font-family="Liberation Serif" font-weight="normal" >De losse hendel hoort in de</text><text x="1516" y="647" font-size="37" fill="#372f29" font-family="Liberation Serif" font-weight="normal" >voedingsvoet bij de maanlantaarn.</text><text x="1516" y="730" font-size="37" fill="#372f29" font-family="Liberation Serif" font-weight="normal" >De ingangen staan vast.</text><text x="1516" y="813" font-size="37" fill="#372f29" font-family="Liberation Serif" font-weight="normal" >Draai de uitgangen zodat de lijn</text><text x="1516" y="865" font-size="37" fill="#372f29" font-family="Liberation Serif" font-weight="normal" >naar de volgende ingang doorloopt.</text><path d="M1509 934 L2169 934" stroke="#a98d63" stroke-width="3" opacity=".7"/>
<circle cx="1640" cy="1122" r="74" fill="#e1d3b4" stroke="#877652" stroke-width="7"/><circle cx="1640" cy="1122" r="46" fill="#51615b" stroke="#b0955e" stroke-width="6"/><circle cx="1640" cy="1122" r="12" fill="#d5b877"/><circle cx="2020" cy="1122" r="74" fill="#e1d3b4" stroke="#877652" stroke-width="7"/><circle cx="2020" cy="1122" r="46" fill="#51615b" stroke="#b0955e" stroke-width="6"/><circle cx="2020" cy="1122" r="12" fill="#d5b877"/><path d="M1522 1122 L1568 1122" stroke="#3b5d61" stroke-width="13" stroke-linecap="round"/>
<rect x="1531" y="1108" width="30" height="28" rx="3" fill="#d2b47b" stroke="#565044" stroke-width="3"/>
<path d="M1713 1122 L1835 1122" stroke="#8c754e" stroke-width="12" stroke-linecap="round" stroke-dasharray="21 12"/>
<path d="M1944 1122 L1905 1122" stroke="#3b5d61" stroke-width="13" stroke-linecap="round"/>
<path d="M2087 1122 L2158 1122" stroke="#b1925c" stroke-width="11" stroke-linecap="round"/>
<path d="M2102 1064a91 91 0 0 1 1 116" stroke="#637269" stroke-width="6" fill="none" stroke-dasharray="10 9" marker-end="url(#arrow)"/>
<text x="1508" y="1016" font-size="29" fill="#616a5a" font-family="Lato" font-weight="bold" letter-spacing="2">WERKING VAN ÉÉN VERBINDING</text><text x="1543" y="1248" font-size="27" fill="#4f584e" font-family="Liberation Serif" font-weight="normal" >vaste ingang</text><text x="1987" y="1248" font-size="27" fill="#4f584e" font-family="Liberation Serif" font-weight="normal" >uitgang draait</text><path d="M194 1459 L2228 1459" stroke="#8b7759" stroke-width="2" opacity=".43"/>
<text x="208" y="1501" font-size="26" fill="#74684f" font-family="Liberation Serif" font-weight="italic" >Gereedschap en kaart horen bij elkaar.</text><text x="2221" y="1501" font-size="21" fill="#74684f" font-family="Lato" font-weight="bold" text-anchor="end" letter-spacing="4">SCHUUR · LICHTPAD</text></svg>